<?xml version="1.0" standalone="no"?>
<!DOCTYPE svg PUBLIC "-//W3C//DTD SVG 20010904//EN"
 "http://www.w3.org/TR/2001/REC-SVG-20010904/DTD/svg10.dtd">
<svg version="1.0" xmlns="http://www.w3.org/2000/svg"
 width="761.000000pt" height="944.000000pt" viewBox="0 0 761.000000 944.000000"
 preserveAspectRatio="xMidYMid meet">

<g transform="translate(0.000000,944.000000) scale(0.100000,-0.100000)"
fill="#000000" stroke="none">
<path d="M3605 9423 c-331 -26 -505 -48 -720 -89 -967 -187 -1690 -610 -2108
-1232 -78 -116 -197 -360 -245 -502 -102 -301 -149 -642 -123 -900 34 -335
119 -568 373 -1025 244 -439 308 -608 324 -862 17 -256 -79 -564 -275 -888
-89 -147 -184 -277 -366 -505 -154 -193 -219 -288 -289 -428 -65 -130 -100
-221 -130 -342 -129 -521 46 -1036 508 -1495 94 -93 294 -265 309 -265 9 0 26
55 32 105 4 28 13 65 21 84 8 19 15 58 17 87 1 29 5 50 10 47 4 -2 7 1 7 6 0
6 -5 11 -11 11 -11 0 -10 9 18 140 28 130 52 216 52 191 1 -17 4 -22 11 -15 6
6 6 20 -1 39 -9 24 -8 37 4 65 13 29 16 31 16 13 2 -39 18 -25 24 19 7 50 1
61 -12 27 l-10 -24 0 28 c-1 15 2 27 7 27 4 0 8 15 9 33 3 43 42 188 42 160 1
-25 15 -30 27 -11 5 7 2 8 -7 3 -11 -6 -12 -5 -2 5 10 11 9 16 -5 27 -13 11
-13 14 -2 10 12 -4 15 4 12 37 -2 31 -1 38 8 26 8 -12 9 -9 4 13 -6 25 -1 45
32 122 7 17 22 58 33 93 20 58 51 127 96 212 38 71 44 87 38 94 -3 3 -2 6 4 6
12 0 22 21 29 59 3 14 8 29 12 35 4 6 12 29 18 51 11 36 27 78 96 248 23 57
68 210 69 235 0 12 3 10 10 -7 7 -17 6 -27 -1 -31 -16 -10 -8 -65 9 -65 8 0
16 6 19 14 3 8 0 11 -5 8 -5 -3 -10 4 -10 16 -2 18 0 19 8 7 9 -12 10 -10 6 8
-3 14 0 22 8 22 20 0 26 28 8 38 -11 6 -12 11 -4 16 6 4 11 2 11 -3 0 -6 7
-11 15 -11 8 0 15 -4 15 -8 0 -5 7 -9 15 -9 8 0 15 4 15 9 0 4 7 8 15 8 8 0
14 5 12 12 -3 15 24 21 41 9 23 -14 14 -161 -9 -161 -5 0 -9 7 -9 15 0 8 -10
20 -22 26 -22 12 -22 12 -5 -15 10 -15 16 -37 14 -49 l-4 -22 -8 22 c-4 13
-11 20 -16 18 -4 -3 -4 -16 1 -29 8 -22 6 -24 -18 -21 -14 1 -28 8 -30 14 -5
16 -22 13 -22 -4 0 -8 4 -15 9 -15 11 0 19 -30 14 -47 -3 -9 -10 -10 -21 -4
-12 6 -26 4 -42 -5 -14 -7 -21 -13 -16 -14 5 0 3 -6 -3 -14 -6 -7 -9 -20 -6
-28 4 -9 -1 -18 -9 -21 -9 -4 -13 -13 -10 -22 4 -9 1 -15 -7 -15 -10 0 -10 -3
-2 -11 9 -9 8 -15 -3 -26 -8 -8 -14 -23 -14 -33 0 -12 -6 -17 -17 -15 -10 1
-12 0 -5 -2 8 -3 12 -13 9 -24 -3 -10 0 -22 5 -25 6 -4 -1 -13 -16 -21 -20
-11 -25 -19 -22 -38 3 -14 0 -25 -5 -25 -6 0 -8 -4 -4 -9 3 -5 1 -12 -5 -16
-14 -9 -12 -35 3 -30 6 3 19 0 27 -5 13 -8 13 -13 2 -31 -12 -19 -12 -21 2
-16 8 3 18 2 21 -3 3 -5 -6 -12 -20 -16 -16 -4 -24 -12 -23 -23 2 -11 -5 -16
-22 -17 -42 -2 -46 -5 -20 -16 24 -10 24 -10 5 -18 l-20 -8 20 -8 c21 -8 66
-51 62 -59 -1 -2 5 -13 14 -23 10 -11 16 -38 16 -73 0 -30 4 -64 10 -75 12
-25 9 -64 -7 -74 -7 -4 -10 -12 -6 -18 3 -6 2 -13 -4 -17 -7 -4 -7 -12 0 -26
9 -15 7 -19 -6 -19 -10 0 -14 -5 -10 -15 6 -17 -13 -65 -26 -65 -4 0 -7 -3 -6
-7 4 -17 -14 -53 -28 -53 -15 0 -15 -2 -18 -62 0 -20 2 -34 6 -31 5 2 8 0 8
-6 0 -5 -5 -13 -10 -16 -6 -4 -8 -11 -4 -16 3 -5 10 -7 15 -4 5 4 9 0 9 -8 0
-22 32 -31 46 -13 6 9 16 16 22 16 7 0 9 8 5 18 -3 9 -3 14 2 10 4 -4 14 -3
22 3 10 9 13 7 13 -9 0 -12 -4 -24 -10 -27 -5 -3 -10 -19 -10 -36 0 -16 -8
-37 -18 -47 -10 -10 -16 -24 -14 -30 2 -7 -1 -12 -7 -12 -6 0 -11 -11 -11 -25
0 -14 -4 -25 -10 -25 -5 0 -10 -5 -10 -11 0 -16 -55 -93 -100 -138 -22 -22
-40 -46 -40 -53 0 -9 3 -9 10 2 6 9 10 10 10 3 0 -21 -12 -43 -21 -37 -5 3 -6
-2 -3 -11 4 -8 1 -22 -6 -30 -9 -10 -9 -15 -1 -15 6 0 11 -4 11 -10 0 -5 -6
-7 -13 -4 -9 3 -16 -10 -23 -38 -8 -37 -12 -43 -31 -40 -16 2 -23 -2 -23 -12
0 -9 -4 -16 -9 -16 -4 0 -8 -15 -8 -33 0 -17 -4 -41 -11 -53 -6 -11 -13 -32
-16 -45 -6 -33 -21 -77 -45 -129 -4 -8 -7 -31 -6 -52 0 -20 -3 -34 -7 -32 -6
4 -28 -50 -28 -70 0 -7 39 -35 87 -63 443 -258 970 -448 1555 -562 177 -35
194 -37 123 -13 -63 22 -75 43 -63 120 5 31 20 127 34 212 14 85 34 211 44
280 10 69 24 157 30 195 5 39 17 132 26 209 12 117 26 184 61 299 3 9 10 17
15 17 13 0 256 -49 280 -56 14 -4 18 5 23 53 4 32 11 75 15 96 7 33 5 41 -13
55 -88 69 -105 98 -98 171 3 36 44 110 49 89 2 -10 -4 -28 -12 -40 -10 -13
-16 -43 -16 -74 0 -44 5 -57 30 -84 21 -22 36 -31 50 -27 39 10 41 -8 25 -183
l-7 -65 99 -18 c174 -33 257 -56 276 -79 14 -17 16 -33 12 -87 -9 -96 -38
-227 -46 -204 -5 14 -9 9 -16 -22 -24 -98 -41 -213 -36 -247 3 -23 1 -38 -5
-38 -14 0 -20 -35 -27 -145 -5 -85 -12 -141 -36 -310 -11 -74 -27 -132 -42
-153 -7 -8 -4 -12 9 -12 17 0 17 -1 -2 -15 -17 -13 -17 -14 -2 -15 9 0 22 8
27 18 9 15 10 15 11 -4 0 -20 6 -21 163 -27 595 -23 1119 90 1766 380 705 317
1307 770 1676 1261 339 451 461 929 350 1368 -13 50 -84 279 -158 510 -227
703 -277 884 -328 1200 -27 166 -37 556 -20 730 47 457 179 927 452 1613 50
123 99 260 109 305 68 283 14 549 -168 826 -72 109 -282 320 -420 420 -595
435 -1521 726 -2547 800 -125 9 -729 12 -830 3z m1380 -785 c16 -62 26 -73 92
-94 30 -10 83 -35 117 -57 81 -53 216 -167 266 -227 49 -59 123 -196 144 -270
28 -95 85 -537 74 -571 -2 -7 -14 -13 -27 -14 -16 -1 -20 2 -15 14 14 33 16
61 5 61 -6 0 -12 -4 -12 -10 -1 -5 -2 -16 -3 -22 -1 -7 -8 -11 -16 -9 -8 3
-25 5 -37 5 -13 1 -23 4 -23 9 0 4 -5 7 -11 7 -7 0 -18 8 -25 18 -11 14 -16
15 -34 4 -19 -12 -20 -11 -8 7 9 14 20 19 38 16 16 -3 13 0 -8 7 -27 9 -35 9
-43 -3 -8 -12 -10 -12 -18 0 -5 8 -14 10 -22 5 -8 -4 -29 -7 -47 -5 -26 2 -33
0 -27 -11 4 -7 -4 1 -19 17 -21 24 -27 27 -35 16 -8 -12 -18 -13 -55 -4 -26 6
-49 6 -52 2 -3 -5 5 -9 18 -10 20 -1 19 -2 -7 -10 -19 -5 -31 -5 -33 1 -5 15
-23 12 -44 -7 -17 -15 -18 -14 -19 20 -1 21 -2 40 -3 45 -1 4 -6 23 -10 42 -4
19 -11 46 -15 60 -5 14 -14 44 -21 68 -16 52 -29 54 -32 5 l-1 -38 -4 34 c-3
18 0 38 6 44 19 19 12 52 -20 95 -17 23 -28 46 -24 52 3 5 -1 10 -9 10 -9 0
-16 4 -16 8 0 14 -92 102 -107 102 -7 0 -16 7 -19 15 -4 8 -12 15 -20 15 -8 0
-14 5 -14 10 0 6 -11 10 -24 10 -13 0 -29 6 -35 13 -12 15 -115 42 -143 38
-10 -1 -18 2 -18 7 0 10 -63 -1 -105 -18 -11 -4 -40 -13 -65 -21 -41 -11 -118
-46 -130 -59 -3 -3 -16 -11 -30 -18 -14 -7 -47 -26 -75 -42 -27 -17 -60 -34
-73 -40 -12 -5 -25 -17 -28 -25 -4 -8 -10 -15 -14 -15 -5 0 -33 -25 -64 -55
-30 -30 -59 -55 -63 -55 -5 0 -17 -16 -26 -35 -9 -19 -23 -35 -32 -35 -9 0
-12 -6 -9 -15 4 -8 -1 -17 -9 -21 -19 -7 -34 -45 -40 -102 -7 -55 -12 -61 -37
-34 -16 17 -27 20 -57 15 -21 -3 -41 -10 -44 -16 -4 -5 -12 -6 -19 -2 -8 5
-11 4 -7 -2 4 -6 -12 -16 -35 -22 -27 -9 -43 -9 -47 -2 -4 6 -12 6 -21 1 -11
-7 -17 -1 -27 21 -10 24 -9 49 7 147 11 64 31 146 44 181 68 171 243 393 389
493 163 111 444 202 642 209 28 1 69 6 93 12 30 7 54 7 80 -1 119 -34 142 -33
142 2 0 13 5 37 11 55 17 49 49 39 64 -21z m-300 -571 c21 -25 92 -57 126 -57
21 0 109 -80 109 -99 0 -6 4 -11 8 -11 11 0 42 -66 42 -88 0 -9 -7 -30 -15
-46 -19 -36 -19 -36 8 -37 18 -1 17 -2 -8 -10 -16 -5 -189 -12 -383 -16 -344
-6 -354 -6 -395 15 -23 11 -64 22 -91 24 -46 3 -50 1 -57 -22 -7 -24 -7 -24
-8 5 -1 17 5 37 12 44 10 11 9 13 -5 8 -28 -10 -21 11 19 61 56 71 136 136
221 180 88 46 139 62 232 73 101 12 161 4 185 -24z m-572 -344 c-7 -2 -19 -2
-25 0 -7 3 -2 5 12 5 14 0 19 -2 13 -5z m107 -40 c0 -5 -7 -33 -15 -63 -8 -30
-15 -67 -15 -82 0 -22 -5 -28 -22 -28 -13 0 -34 -3 -48 -5 -15 -3 -11 0 10 8
31 13 35 18 33 48 -2 27 -1 30 6 14 8 -17 10 -16 10 10 1 42 20 105 31 105 6
0 10 -3 10 -7z m-211 -72 c-6 -34 -14 -60 -16 -57 -2 2 1 32 8 65 6 34 14 60
16 57 2 -2 -1 -32 -8 -65z m-132 25 c-7 -17 23 -46 46 -46 9 0 19 -5 23 -11 6
-11 -25 -8 -78 7 -21 6 -24 34 -6 52 16 16 21 15 15 -2z m808 -81 c215 1 372
-2 350 -6 -97 -19 -806 -30 -824 -13 -2 2 1 10 8 18 8 10 21 12 44 7 18 -4
208 -7 422 -6z m-655 -31 c0 -2 -12 -4 -26 -4 -14 0 -23 4 -20 9 6 8 46 4 46
-5z m254 -27 c-3 -9 12 -13 63 -13 133 -2 169 -5 148 -13 -39 -16 -77 -22 -71
-12 11 17 -10 21 -30 6 -23 -17 -48 -20 -38 -4 5 8 1 8 -14 0 -23 -12 -122
-15 -123 -3 0 4 -2 17 -5 30 -3 20 0 22 36 22 28 0 38 -4 34 -13z m446 3 c-8
-5 -31 -10 -50 -10 -20 0 -42 -6 -50 -12 -8 -7 -6 -3 4 10 15 17 30 22 65 22
33 0 42 -3 31 -10z m-710 -20 c0 -5 -2 -10 -4 -10 -3 0 -8 5 -11 10 -3 6 -1
10 4 10 6 0 11 -4 11 -10z m-403 -47 c-4 -17 -4 -17 -12 0 -4 9 -4 25 0 35 8
16 8 16 12 0 3 -10 3 -26 0 -35z m1973 -13 c0 -5 -5 -10 -11 -10 -5 0 -7 5 -4
10 3 6 8 10 11 10 2 0 4 -4 4 -10z m-1952 -60 c0 -16 -4 -30 -9 -30 -5 0 -9
14 -9 30 0 17 4 30 8 30 5 0 9 -13 10 -30z m2019 -2 c-3 -7 -5 -2 -5 12 0 14
2 19 5 13 2 -7 2 -19 0 -25z m-27 1 c0 -6 -4 -7 -10 -4 -5 3 -10 11 -10 16 0
6 5 7 10 4 6 -3 10 -11 10 -16z m-1980 -69 c0 -16 -4 -30 -10 -30 -5 0 -10 14
-10 30 0 17 5 30 10 30 6 0 10 -13 10 -30z m1967 -46 c-3 -3 -12 -4 -19 -1 -8
3 -5 6 6 6 11 1 17 -2 13 -5z m-1939 -114 c13 0 14 -2 3 -9 -11 -7 -11 -13 -1
-32 9 -16 9 -24 2 -27 -6 -2 -8 -17 -5 -36 3 -18 0 -43 -7 -55 -15 -28 -6 -38
17 -20 16 13 17 12 4 -3 -9 -12 -13 -44 -12 -102 1 -47 -3 -87 -8 -90 -15 -10
-19 20 -26 194 -3 91 -10 179 -16 196 -7 22 -6 39 2 60 12 29 12 29 21 -23 7
-39 14 -53 26 -53z m57 -135 c-27 -30 -41 -29 -30 4 3 11 12 18 20 15 7 -3 16
0 20 6 4 6 9 9 12 7 2 -3 -7 -17 -22 -32z m65 -225 c0 -5 -2 -10 -4 -10 -3 0
-8 5 -11 10 -3 6 -1 10 4 10 6 0 11 -4 11 -10z m35 -50 c-3 -6 4 -14 17 -19
13 -6 16 -10 8 -10 -23 -1 -54 26 -38 32 19 8 20 8 13 -3z m668 -95 c41 -41
79 -75 85 -75 11 0 16 -13 13 -32 0 -4 8 -12 19 -18 11 -6 20 -8 20 -5 0 3 6
1 13 -5 6 -5 24 -19 40 -31 16 -12 27 -30 27 -44 0 -29 -37 -38 -165 -39 -50
0 -93 -5 -97 -11 -7 -10 -248 -15 -248 -5 0 3 -13 11 -30 18 -23 10 -30 20
-30 40 0 32 25 84 46 95 8 4 14 17 14 27 0 11 7 20 15 20 20 0 101 59 97 72
-1 5 2 7 7 3 6 -3 16 4 23 16 10 16 55 45 75 49 2 0 36 -34 76 -75z m-610 39
c18 -9 34 -20 37 -24 9 -13 71 -41 88 -39 31 3 43 -1 37 -12 -4 -6 2 -5 13 2
18 11 24 9 45 -11 32 -30 21 -64 -17 -54 -13 3 -27 1 -30 -5 -4 -6 -26 -11
-49 -11 -25 0 -37 -4 -29 -8 22 -15 -31 -34 -89 -33 -88 2 -119 4 -115 9 3 2
-4 13 -14 24 -18 20 -21 52 -6 76 4 7 4 17 1 22 -3 6 1 13 10 16 9 4 14 13 11
20 -6 16 30 38 50 30 8 -3 14 -1 14 4 0 14 6 13 43 -6z m1225 -66 c2 -9 -5
-23 -14 -33 -17 -17 -16 -17 14 -10 21 4 32 3 32 -4 0 -6 -10 -11 -22 -12 -13
-1 -52 -3 -88 -4 -67 -3 -113 11 -123 39 -8 21 3 26 72 30 34 1 63 5 66 7 11
11 60 1 63 -13z m9 -114 c-3 -3 -12 -4 -19 -1 -8 3 -5 6 6 6 11 1 17 -2 13 -5z
m-1382 -14 c3 -5 1 -10 -4 -10 -6 0 -11 5 -11 10 0 6 2 10 4 10 3 0 8 -4 11
-10z m454 -202 c14 -44 17 -90 6 -107 -5 -10 -4 -12 3 -7 7 4 12 1 12 -8 0
-12 14 -15 69 -14 38 0 77 -4 87 -10 14 -8 -8 -11 -92 -14 -61 -2 -124 0 -140
3 l-29 7 28 1 c21 1 27 6 27 23 0 20 -1 21 -13 4 -12 -16 -13 -16 -14 1 -1 10
-4 36 -8 58 -14 81 41 134 64 63z m-2442 -145 c23 -14 39 -31 37 -37 -2 -6 9
-20 26 -30 23 -13 29 -23 25 -37 -7 -21 10 -27 18 -6 2 6 8 9 12 5 10 -10 -25
-50 -39 -45 -6 2 -22 8 -36 12 -25 7 -25 7 -5 -10 18 -15 18 -16 2 -11 -10 3
-23 6 -28 6 -6 0 -8 4 -5 8 6 9 -21 35 -47 45 -9 3 -19 2 -23 -4 -10 -16 -39
17 -54 61 -11 32 -11 42 0 55 19 23 71 18 117 -12z m2946 -120 c-6 -18 -18
-29 -32 -31 -20 -3 -22 0 -16 20 4 13 14 31 23 41 22 25 37 7 25 -30z m-453
-7 l9 -21 0 22 c2 41 40 41 58 0 l10 -22 7 22 c9 28 29 35 66 22 24 -9 30 -17
30 -39 0 -16 5 -32 10 -35 6 -4 10 5 10 19 0 31 32 66 60 66 26 0 42 -32 38
-78 l-3 -37 -90 -1 c-50 -1 -99 3 -110 9 -11 6 -24 10 -29 9 -16 -5 -46 10
-46 23 0 7 -11 16 -25 19 -18 5 -25 13 -25 32 0 29 17 24 30 -10z m375 -12 c0
-37 -2 -39 -34 -42 -33 -3 -34 -3 -27 30 6 34 32 61 51 55 5 -2 10 -21 10 -43z
m-2715 1 c0 -8 6 -15 13 -15 6 0 31 -18 55 -40 23 -22 52 -44 63 -50 12 -7 18
-18 15 -26 -3 -9 1 -14 14 -14 11 0 20 -4 20 -10 0 -5 -8 -10 -18 -10 -10 0
-23 -5 -29 -11 -5 -5 -25 -12 -43 -14 -28 -4 -40 3 -95 55 -34 33 -70 60 -80
60 -14 0 -9 9 21 44 40 46 64 57 64 31z m-100 -39 c0 -3 -4 -8 -10 -11 -5 -3
-10 -1 -10 4 0 6 5 11 10 11 6 0 10 -2 10 -4z m2440 -22 c0 -2 -9 -4 -20 -4
-11 0 -20 4 -20 9 0 5 9 7 20 4 11 -3 20 -7 20 -9z m494 3 c-2 -7 -13 -18 -24
-25 -16 -10 -20 -10 -20 1 0 11 24 29 47 36 1 1 0 -5 -3 -12z m-412 -29 c6
-18 199 -22 210 -5 6 9 11 7 19 -5 10 -18 40 -26 38 -10 -3 18 2 32 12 32 6 0
9 -7 6 -15 -9 -23 10 -28 43 -11 24 11 30 12 30 1 0 -7 -24 -22 -53 -34 -49
-20 -66 -21 -205 -17 -140 4 -192 14 -192 36 0 4 -3 15 -6 24 -5 13 2 16 44
16 31 0 52 -5 54 -12z m-2216 -94 c-4 -12 -2 -15 9 -10 8 3 15 1 15 -4 0 -5
-19 -14 -42 -20 -24 -6 -51 -15 -61 -21 -28 -15 -30 -6 -6 24 12 16 30 27 44
27 13 0 27 5 30 10 10 16 18 12 11 -6z m653 -3 c10 -18 6 -42 -16 -101 -4 -8
-5 -21 -4 -29 2 -10 -5 -12 -23 -9 -22 4 -26 2 -26 -18 0 -13 -4 -24 -10 -24
-5 0 -6 -7 -3 -17 5 -12 3 -14 -8 -8 -10 7 -9 1 4 -18 16 -24 16 -27 1 -27
-26 0 -9 -25 22 -31 21 -5 24 -7 9 -9 -11 -2 -24 -4 -30 -5 -5 -2 -20 -3 -33
-4 -14 -1 -21 -5 -16 -12 4 -7 29 -9 65 -7 32 2 56 1 54 -2 -3 -4 5 -16 15
-28 11 -12 20 -24 20 -27 0 -3 21 -49 47 -103 47 -96 48 -103 44 -210 -1 -13
5 -38 13 -55 8 -18 17 -67 21 -111 4 -52 12 -84 22 -95 15 -14 14 -16 -8 -22
-24 -5 -24 -6 -3 -13 12 -3 26 -6 30 -5 18 4 94 -14 94 -22 0 -4 8 -10 18 -13
20 -7 72 -86 72 -111 0 -11 -14 1 -37 33 -31 41 -45 52 -76 58 -21 3 -41 12
-44 20 -3 8 -9 14 -14 14 -4 0 -6 -7 -3 -15 8 -19 -26 -21 -46 -2 -12 10 -12
9 -1 -5 17 -23 -2 -24 -43 -3 -37 19 -39 19 -26 -5 13 -25 -5 -27 -37 -5 -14
10 -24 12 -28 5 -3 -5 -2 -10 2 -10 5 0 18 -7 29 -15 18 -14 17 -14 -13 -15
-17 0 -39 7 -47 16 -9 8 -20 12 -26 9 -14 -8 -3 -24 24 -35 16 -7 9 -9 -29 -9
-36 -1 -46 2 -35 9 13 8 13 10 -2 10 -30 0 -26 -25 6 -37 30 -11 29 -11 -24
-12 -39 -1 -51 2 -40 9 8 5 10 10 4 10 -5 0 -16 -6 -22 -12 -10 -10 -6 -15 20
-24 l33 -12 -30 -7 c-47 -13 -95 -45 -95 -64 0 -19 -24 -44 -51 -54 -15 -5
-34 -57 -30 -84 1 -7 -5 -25 -14 -40 l-16 -28 5 33 c3 18 1 32 -5 32 -5 0 -4
11 4 28 7 15 11 37 9 50 -3 22 -26 30 -37 12 -4 -6 -26 -2 -57 10 -28 11 -56
16 -61 13 -6 -4 -7 -1 -2 7 6 10 3 12 -13 8 -12 -4 -20 -2 -16 3 3 5 0 9 -5 9
-6 0 -11 -4 -11 -9 0 -12 -83 28 -93 45 -4 8 -16 14 -27 14 -10 0 -25 6 -32
13 -7 6 -26 19 -42 27 -17 8 -52 39 -80 68 -27 28 -56 52 -64 52 -7 0 -20 7
-28 14 -12 13 -12 18 8 35 12 12 25 21 30 21 4 0 5 7 1 16 -4 10 1 17 16 21
11 3 18 9 15 15 -3 5 -1 15 5 21 8 10 -2 13 -44 14 -47 1 -108 23 -125 44 -3
4 -21 10 -40 14 -29 7 -32 9 -15 15 12 4 23 3 27 -4 5 -7 8 -4 8 8 0 16 -6 18
-40 13 -32 -4 -43 -1 -53 13 -7 11 -25 21 -39 24 -29 5 -68 24 -68 32 0 3 5 2
10 -1 6 -3 10 -1 10 4 0 6 -9 11 -19 11 -10 0 -21 7 -25 15 -4 13 -2 13 14 5
15 -8 21 -6 30 10 9 17 7 20 -14 26 -29 7 -46 -1 -46 -22 0 -17 -1 -17 -33 -5
-13 5 -30 5 -37 1 -8 -5 -19 -5 -26 1 -7 6 -25 12 -40 15 -16 3 -33 9 -39 14
-5 5 -35 15 -65 22 -49 13 -55 17 -55 40 1 17 -4 24 -12 21 -7 -3 -13 -11 -13
-19 0 -15 -18 -18 -37 -6 -7 4 -19 24 -27 43 -13 32 -13 38 1 59 14 20 22 22
65 17 29 -4 94 -27 155 -57 58 -27 115 -50 127 -50 32 0 126 -29 126 -39 0
-10 77 -49 173 -87 58 -23 70 -25 77 -13 7 10 2 17 -18 24 -60 22 -182 97
-182 112 0 12 -3 13 -15 3 -22 -19 -32 33 -11 65 35 54 77 56 236 12 62 -18
98 -23 104 -17 7 7 1 10 -15 10 -14 0 -43 13 -65 29 -22 16 -59 31 -86 35 -50
8 -64 19 -66 53 -1 30 51 73 88 73 16 0 69 -9 117 -21 118 -28 244 -31 271 -6
17 16 18 22 9 48 -6 16 -16 29 -22 29 -5 0 -18 14 -27 30 -9 17 -24 30 -33 30
-8 0 -15 5 -15 11 0 16 59 69 77 69 8 0 39 -27 70 -60 30 -33 63 -60 73 -60
22 0 91 -50 154 -112 28 -26 55 -48 60 -48 7 0 11 42 12 115 0 75 5 120 12
127 7 7 12 19 12 28 0 9 9 25 20 35 11 10 20 13 20 7 0 -7 7 -12 15 -12 18 0
18 5 5 30 -14 26 -2 50 34 66 43 18 64 17 75 -5z m-569 -51 c13 -25 5 -40 -20
-40 -11 0 -27 -11 -36 -25 -25 -38 -51 -49 -70 -31 -8 9 -22 12 -32 9 -16 -7
-16 -5 1 17 10 14 23 37 30 51 10 22 16 25 35 18 17 -6 28 -5 38 6 21 21 41
19 54 -5z m1697 -36 c-3 -4 -2 -15 4 -25 6 -11 6 -19 0 -19 -5 0 -12 7 -15 16
-6 16 0 34 11 34 4 0 3 -3 0 -6z m393 -91 c23 -20 46 -45 51 -55 9 -17 8 -18
-10 -9 -11 6 -30 11 -42 11 -25 0 -105 36 -115 51 -3 5 8 12 25 15 17 4 28 10
25 15 -14 24 31 5 66 -28z m-2235 7 c14 -15 16 -23 7 -32 -15 -15 -42 7 -42
33 0 25 12 24 35 -1z m1832 -2 c-3 -8 -6 -5 -6 6 -1 11 2 17 5 13 3 -3 4 -12
1 -19z m-82 -69 c-5 -15 -4 -19 5 -14 7 4 5 -4 -4 -17 -9 -14 -25 -63 -35
-109 -10 -46 -39 -156 -64 -244 -58 -205 -57 -200 -77 -420 -6 -66 -20 -199
-31 -295 -10 -96 -19 -179 -19 -184 0 -11 -14 2 -16 15 -1 5 -2 14 -3 19 0 6
-9 10 -18 10 -14 0 -15 -2 -5 -9 27 -17 6 -40 -38 -42 -22 0 -23 -1 -5 -8 15
-6 6 -10 -35 -16 -30 -4 -49 -9 -43 -12 9 -3 10 -10 3 -23 -7 -13 -7 -21 0
-25 6 -4 8 -11 5 -16 -4 -5 2 -9 12 -9 15 0 16 -2 3 -10 -12 -8 -11 -10 8 -10
26 0 30 -19 5 -21 -10 -1 0 -5 22 -9 l40 -8 -45 2 c-38 1 -46 5 -61 31 -14 25
-15 42 -8 105 5 41 11 99 14 128 2 29 6 61 9 70 5 18 7 26 31 242 33 287 104
574 136 554 5 -3 6 -11 2 -17 -4 -7 -8 -17 -9 -24 -2 -13 54 -24 62 -11 3 5
12 4 20 -3 11 -9 14 -7 14 15 0 14 5 26 11 26 5 0 8 4 4 9 -3 5 0 13 6 17 8 4
7 9 -2 15 -12 8 -11 11 3 19 15 10 36 110 30 153 -1 10 14 48 34 83 36 65 51
81 39 43z m-2121 -118 c10 -11 16 -24 15 -29 -6 -15 -46 4 -59 27 -9 18 -8 21
8 21 10 0 27 -9 36 -19z m36 -46 l-8 -40 -1 36 c0 20 2 39 6 42 11 11 11 4 3
-38z m1267 -488 c1 -26 0 -28 -7 -12 -11 26 -12 45 -2 45 4 0 8 -15 9 -33z
m17 -189 c-3 -4 2 -5 11 -2 8 4 26 -1 40 -10 20 -13 23 -22 18 -46 -4 -23 -2
-30 11 -30 9 0 16 -4 16 -10 0 -5 -4 -10 -8 -10 -4 0 -8 -9 -9 -21 -1 -15 3
-19 13 -15 9 3 12 1 9 -4 -3 -6 1 -10 9 -10 10 0 16 -9 16 -26 0 -14 -4 -23
-8 -20 -5 3 -9 -1 -9 -9 0 -8 4 -15 9 -15 4 0 8 -7 8 -15 0 -8 5 -15 10 -15 6
0 16 -12 22 -27 7 -16 21 -36 32 -45 10 -10 15 -18 11 -18 -4 0 0 -9 11 -21
14 -16 16 -22 5 -28 -11 -7 -10 -11 4 -18 9 -5 16 -13 15 -17 -1 -4 5 -20 12
-36 11 -27 25 -35 50 -31 10 1 61 -80 61 -96 0 -7 4 -13 9 -13 4 0 8 -7 8 -15
0 -9 11 -27 24 -40 57 -57 88 -124 58 -126 -16 -1 -16 -2 -1 -6 9 -2 19 -17
22 -32 3 -15 17 -39 32 -52 14 -13 33 -39 42 -58 9 -19 25 -36 35 -39 10 -2
18 -11 18 -19 0 -10 7 -13 23 -8 19 5 19 4 5 -5 -16 -10 -14 -13 13 -40 19
-17 28 -34 23 -41 -4 -8 -3 -9 4 -5 7 4 12 2 12 -3 0 -6 6 -11 14 -11 8 0 17
-13 21 -29 5 -23 11 -29 26 -26 11 2 17 0 14 -6 -4 -5 -1 -9 4 -9 6 0 11 5 11
11 0 8 5 7 15 -1 12 -10 13 -15 3 -21 -6 -4 -17 -5 -23 -3 -5 3 -1 -2 10 -11
12 -10 21 -12 23 -5 2 6 12 2 21 -9 10 -12 21 -17 25 -14 4 4 3 -5 -3 -19 -12
-31 7 -58 40 -58 13 0 19 -7 19 -22 0 -26 27 -58 50 -58 9 0 21 -5 28 -12 9
-9 12 -9 12 0 0 6 -16 18 -35 26 -21 9 -35 22 -36 33 -1 10 -2 25 -3 33 -1 16
30 70 49 82 22 16 102 8 128 -12 42 -33 44 -78 9 -155 -17 -36 -36 -65 -42
-65 -13 0 20 -38 125 -145 63 -64 156 -143 276 -232 23 -18 38 -33 31 -33 -6
0 -14 5 -17 10 -10 16 -35 12 -29 -5 4 -8 2 -15 -4 -15 -5 0 -15 7 -22 15 -7
8 -20 15 -29 15 -14 0 -14 2 -1 10 19 12 33 13 25 1 -3 -5 -1 -12 4 -15 5 -4
12 -2 15 3 3 5 -11 21 -32 37 -20 15 -40 33 -44 38 -5 7 -8 7 -8 -2 0 -7 -16
4 -35 24 -24 25 -40 34 -53 29 -11 -3 -24 1 -32 10 -15 18 0 20 20 3 8 -7 -6
10 -30 38 -46 53 -63 61 -90 44 -13 -9 -13 -12 4 -25 11 -8 16 -21 13 -30 -4
-8 -2 -16 3 -16 19 -3 25 -5 48 -18 14 -7 21 -18 18 -26 -7 -18 22 -48 40 -41
8 3 14 0 15 -7 1 -7 2 -21 3 -32 1 -15 8 -20 26 -19 13 1 30 -6 37 -15 11 -14
14 -14 23 -1 7 12 10 12 10 1 0 -7 6 -11 15 -8 8 4 17 2 20 -3 3 -4 1 -10 -4
-12 -5 -2 -5 -13 0 -27 7 -18 14 -22 32 -17 18 4 27 0 37 -18 6 -13 23 -30 36
-37 18 -9 21 -15 12 -21 -10 -6 -9 -11 4 -19 10 -5 21 -10 25 -10 5 -1 17 -6
28 -12 20 -11 26 -13 45 -16 6 0 10 -9 10 -19 0 -10 7 -19 14 -19 12 0 13 5 4
20 -6 12 -6 17 0 13 5 -3 13 1 16 10 3 8 10 13 14 10 5 -3 9 1 9 9 0 8 -5 15
-11 15 -6 0 -4 5 4 10 12 8 11 10 -7 10 -12 0 -25 5 -28 10 -7 12 -1 12 48 1
20 -5 39 -5 42 -1 9 14 -87 74 -113 72 -16 -1 -26 4 -29 18 -3 11 -10 17 -15
14 -6 -4 -6 18 -2 58 9 82 19 114 33 110 6 -1 11 5 11 14 0 39 148 189 220
222 49 23 67 26 170 25 162 0 278 -30 520 -131 98 -42 188 -92 227 -128 27
-24 27 -25 3 -12 -14 7 -32 19 -41 26 -14 11 -16 10 -12 -13 3 -15 1 -25 -6
-25 -6 0 -11 -5 -11 -11 0 -5 4 -8 9 -4 5 3 9 -10 8 -30 -1 -20 -7 -35 -14
-35 -7 0 -10 -7 -7 -15 4 -9 0 -15 -7 -16 -27 -1 -51 -8 -57 -15 -4 -4 1 -4
11 -1 15 6 17 3 12 -13 -4 -13 -2 -20 7 -20 7 0 2 -6 -12 -13 -14 -8 -24 -20
-22 -30 2 -11 -6 -19 -24 -23 -19 -5 -22 -9 -12 -15 9 -6 9 -9 1 -9 -6 0 -15
5 -18 10 -9 15 -25 12 -25 -4 0 -8 -7 -22 -16 -30 -14 -15 -14 -16 3 -17 14 0
12 -3 -7 -11 -14 -6 -28 -12 -31 -12 -3 -1 -24 -18 -45 -38 -24 -24 -48 -38
-64 -38 -18 0 -21 -3 -11 -9 9 -6 2 -10 -23 -13 -20 -2 -36 0 -36 5 0 4 -5 5
-10 2 -6 -4 -8 -10 -5 -15 5 -8 -54 -37 -69 -32 -4 1 -14 -2 -21 -8 -7 -6 -24
-13 -36 -15 -13 -3 -26 -10 -27 -15 -3 -7 -9 -7 -18 1 -11 9 -14 6 -14 -15 0
-22 -4 -26 -17 -22 -10 3 -31 -1 -47 -9 -22 -12 -32 -12 -42 -4 -11 9 -14 8
-14 0 0 -7 -5 -9 -10 -6 -6 4 -17 1 -25 -5 -8 -7 -15 -9 -15 -4 0 5 -5 1 -11
-8 -7 -13 -15 -15 -32 -9 -21 8 -76 -4 -87 -19 -9 -12 -50 -19 -50 -8 0 14
-63 5 -76 -12 -10 -11 -17 -12 -38 -2 -14 6 -26 8 -26 3 0 -4 -6 -8 -14 -8 -8
0 -11 8 -8 19 2 10 1 18 -4 17 -23 -4 -41 3 -69 27 -21 18 -38 24 -57 22 -16
-3 -28 -1 -28 4 0 4 -9 8 -20 8 -11 0 -20 5 -20 11 0 6 -7 9 -15 6 -8 -4 -17
-2 -20 4 -4 5 -11 7 -16 4 -5 -4 -9 -1 -9 4 0 6 -17 11 -37 11 -25 0 -33 -3
-24 -9 8 -5 9 -11 3 -15 -5 -3 -13 2 -16 11 -4 9 -1 20 6 25 12 7 4 12 -14 9
-4 0 -5 6 -2 14 4 8 1 15 -5 15 -7 0 -14 -6 -16 -12 -3 -7 -19 -13 -35 -14
-16 -1 -27 3 -24 7 3 5 -4 9 -15 9 -12 0 -21 6 -21 13 0 8 -11 20 -25 27 -18
10 -22 16 -13 22 9 5 5 8 -12 9 -14 0 -20 3 -13 6 9 3 10 9 1 23 -10 15 -13
16 -26 4 -11 -11 -17 -12 -28 -3 -7 6 -18 8 -24 4 -5 -3 -10 1 -10 10 0 13 -6
16 -22 12 -24 -6 -63 15 -51 27 4 4 0 4 -10 0 -10 -3 -17 -1 -17 5 0 6 -10 11
-22 11 -19 0 -20 2 -8 11 12 9 11 10 -7 6 -16 -3 -23 0 -23 9 0 19 -44 18 -60
-1 -14 -17 -4 -55 15 -55 7 0 16 -12 20 -27 3 -16 15 -37 25 -48 18 -19 20
-24 20 -45 0 -5 7 -7 15 -4 8 4 15 1 15 -5 0 -16 -4 -26 -10 -24 -3 0 -12 -6
-20 -15 -13 -14 -12 -15 5 -9 11 5 22 3 27 -5 6 -10 8 -10 8 0 0 6 5 12 10 12
6 0 10 -7 10 -15 0 -8 3 -14 8 -14 21 4 32 -3 32 -18 0 -9 3 -13 7 -10 11 12
31 -13 26 -34 -4 -15 -2 -18 11 -13 16 6 22 -7 9 -19 -3 -4 -7 -18 -8 -32 0
-20 4 -25 23 -25 17 0 22 4 19 14 -3 8 -3 16 -1 19 10 9 58 -22 71 -45 7 -13
12 -17 13 -10 0 6 4 12 8 12 4 0 6 -16 4 -36 -3 -24 0 -40 9 -46 11 -7 9 -9
-6 -5 -15 3 -21 -1 -21 -14 0 -10 4 -15 8 -13 4 3 8 0 8 -6 0 -7 7 -10 14 -7
10 4 13 1 9 -9 -3 -7 0 -14 6 -14 6 0 11 5 11 10 0 15 30 12 36 -3 2 -7 20
-13 39 -14 19 -1 33 3 30 7 -6 10 23 18 48 12 9 -2 17 -11 17 -18 0 -8 7 -14
15 -14 29 0 55 -33 55 -70 0 -25 6 -39 22 -49 19 -12 20 -14 5 -23 -9 -5 -17
-14 -17 -21 0 -8 4 -7 10 3 7 12 13 9 34 -13 14 -16 26 -33 26 -38 0 -6 5 -7
10 -4 6 4 17 2 25 -5 8 -7 15 -7 19 -1 4 5 26 1 56 -12 45 -19 49 -23 43 -46
-7 -28 -22 -43 -35 -35 -4 3 -8 -3 -8 -13 0 -11 -3 -14 -8 -7 -11 17 -49 23
-69 10 -26 -18 -102 -38 -113 -31 -6 3 -10 2 -10 -2 0 -5 -21 -8 -46 -8 -32 0
-49 5 -59 18 -7 10 -19 15 -28 11 -20 -7 -45 16 -39 35 3 10 -1 12 -16 9 -12
-4 -26 0 -33 8 -6 8 -8 14 -3 14 4 0 -1 10 -12 23 -11 12 -25 34 -32 50 -6 15
-19 27 -27 27 -12 0 -15 6 -10 20 5 16 3 19 -12 14 -17 -5 -17 -5 -1 8 24 21
26 40 3 44 -11 1 -21 8 -23 13 -2 6 -11 11 -19 11 -9 0 -13 6 -9 15 3 9 0 15
-8 15 -19 0 -27 25 -13 40 9 10 8 12 -5 7 -10 -3 -20 -2 -24 4 -3 6 -12 8 -20
5 -16 -6 -47 24 -54 55 -6 23 -27 26 -22 3 2 -11 -2 -12 -23 -2 -14 6 -25 19
-25 30 0 10 -4 18 -10 18 -5 0 -10 -4 -10 -10 0 -5 -6 -10 -13 -10 -7 0 -18
-9 -25 -21 -13 -20 -14 -19 -33 17 -12 25 -16 41 -9 48 16 16 12 30 -5 16 -12
-10 -15 -10 -15 2 0 8 5 19 12 26 7 7 9 13 5 13 -4 1 -11 3 -17 4 -5 1 -13 3
-16 4 -4 0 -1 7 5 15 21 26 58 5 51 -29 -1 -5 9 0 22 13 31 29 46 28 54 -3 6
-25 24 -36 20 -12 -5 35 -51 63 -74 44 -9 -7 -18 -6 -30 7 -16 16 -16 17 2 10
16 -6 18 -4 14 14 -4 12 -3 20 1 18 4 -3 13 4 20 16 7 11 8 17 2 14 -5 -4 -14
1 -19 10 -5 9 -21 16 -36 17 -14 0 -26 4 -26 9 0 6 9 8 20 5 25 -7 38 13 16
25 -9 5 -16 16 -16 24 0 8 -11 19 -25 24 -25 10 -35 30 -14 30 8 0 7 5 -2 16
-12 14 -14 14 -26 -2 -12 -17 -13 -17 -13 0 0 10 -5 14 -11 10 -7 -4 -20 3
-29 16 -17 22 -19 23 -35 7 -22 -22 -28 -21 -15 2 7 14 6 21 -3 25 -6 3 -2 3
10 0 16 -4 21 -1 19 13 -2 10 -9 18 -17 18 -8 0 -18 6 -22 13 -4 6 -19 12 -32
12 -18 0 -25 7 -30 30 -4 19 -17 36 -35 45 -16 8 -37 31 -46 51 -14 30 -21 34
-40 30 -13 -4 -24 -3 -25 1 -4 46 -46 108 -85 125 -15 7 -24 20 -24 33 0 14
-8 25 -19 28 -14 3 -17 0 -14 -14 7 -27 -4 -23 -23 7 -15 22 -15 27 -3 36 11
8 10 9 -4 4 -10 -3 -27 -1 -38 5 -17 9 -18 13 -7 27 10 12 10 14 1 8 -12 -7
-18 5 -14 28 1 5 -5 6 -13 3 -9 -4 -18 -2 -21 2 -3 5 2 11 10 15 8 3 15 11 15
18 0 10 -2 10 -8 0 -6 -8 -19 -10 -41 -6 -21 4 -28 10 -20 14 7 5 18 6 25 3 6
-2 15 0 18 5 10 16 -4 40 -25 45 -23 6 -24 3 -3 -17 11 -12 12 -16 2 -16 -23
0 -41 17 -33 31 5 8 5 11 0 7 -9 -9 -34 33 -27 45 2 4 10 3 17 -3 7 -6 16 -7
18 -3 6 10 -7 35 -17 34 -18 -3 -23 2 -36 37 -16 43 -20 56 -27 97 -3 17 -18
42 -33 56 -28 25 -32 42 -17 66 5 7 0 20 -12 32 -10 10 -22 38 -26 62 -4 24
-16 51 -26 60 -11 9 -19 21 -19 28 0 6 -4 11 -10 11 -5 0 -10 9 -10 19 0 11
-6 21 -12 24 -10 3 -10 7 -1 17 8 9 8 20 -3 46 -8 19 -15 37 -17 41 -1 5 -6 7
-10 5 -5 -1 -6 2 -2 7 10 17 -6 60 -26 66 -12 4 -19 16 -19 30 0 13 -4 27 -10
30 -5 3 -8 19 -6 35 2 21 -1 30 -10 30 -11 0 -13 11 -9 43 3 26 2 37 -4 28 -6
-9 -11 -10 -15 -2 -4 6 -11 9 -15 7 -4 -3 -14 7 -22 22 -8 15 -20 33 -26 40
-7 7 -13 19 -13 26 0 7 -23 34 -51 60 -45 41 -50 51 -46 76 6 30 82 109 105
110 7 0 10 5 6 12 -4 6 -3 8 3 5 12 -7 173 70 173 84 0 5 8 9 18 9 9 0 39 8
66 18 49 17 159 25 150 10z m156 -104 c0 -8 -4 -14 -10 -14 -5 0 -10 9 -10 21
0 11 5 17 10 14 6 -3 10 -13 10 -21z m1261 -37 c-10 -9 -11 -8 -5 6 3 10 9 15
12 12 3 -3 0 -11 -7 -18z m-1251 -13 c0 -8 -4 -12 -10 -9 -5 3 -10 13 -10 21
0 8 5 12 10 9 6 -3 10 -13 10 -21z m1208 -56 c-7 -12 -21 -32 -31 -44 -27 -31
-38 -81 -22 -94 9 -8 15 -8 20 0 10 16 25 12 25 -9 0 -10 6 -24 14 -30 14 -12
46 -5 46 10 0 5 9 9 20 9 11 0 20 3 20 8 0 11 51 64 57 58 3 -2 -36 -59 -85
-125 -50 -66 -93 -117 -96 -114 -3 4 -6 1 -6 -6 0 -7 -17 -34 -38 -60 -67 -82
-112 -150 -102 -156 6 -3 10 -19 10 -35 0 -25 -4 -29 -32 -33 -30 -4 -31 -5
-10 -12 29 -10 28 -33 -4 -125 -14 -41 -28 -85 -31 -97 -8 -35 -27 -45 -65
-35 l-33 8 0 110 c0 60 4 118 9 129 11 24 38 45 48 39 5 -3 8 0 8 5 0 6 6 11
14 11 13 0 14 49 1 70 -3 5 1 10 7 13 7 2 -2 4 -19 5 -18 0 -33 -4 -33 -9 0
-6 -4 -8 -10 -4 -5 3 -7 12 -4 19 3 8 0 17 -7 22 -9 5 -10 2 -6 -9 4 -10 2
-17 -5 -17 -7 0 -7 -4 1 -14 10 -12 8 -13 -8 -9 -12 3 -28 0 -36 -7 -28 -23
-17 28 17 78 35 52 165 225 194 259 11 12 37 45 59 74 35 45 77 97 110 135 16
19 18 8 3 -18z m-1907 -159 c-9 -23 -10 -22 -10 11 -1 23 2 31 9 24 7 -7 7
-19 1 -35z m1939 -9 c0 -5 -2 -10 -4 -10 -3 0 -8 5 -11 10 -3 6 -1 10 4 10 6
0 11 -4 11 -10z m-1907 -62 c8 -5 7 -13 0 -30 -12 -23 -12 -23 -12 5 -1 19 -5
26 -13 21 -8 -5 -9 -2 -5 10 4 10 8 23 8 29 1 7 4 3 6 -8 3 -11 10 -23 16 -27z
m49 -89 c-2 -16 -9 -29 -14 -29 -5 0 -6 -9 -3 -20 11 -35 -3 -60 -36 -60 -35
0 -37 12 -8 90 18 49 24 56 43 53 18 -4 22 -10 18 -34z m15 -71 c-3 -8 -6 -5
-6 6 -1 11 2 17 5 13 3 -3 4 -12 1 -19z m33 2 c0 -5 -4 -10 -10 -10 -5 0 -10
5 -10 10 0 6 5 10 10 10 6 0 10 -4 10 -10z m4 -35 c4 -11 -1 -15 -19 -15 -24
0 -32 10 -18 23 11 12 31 8 37 -8z m951 -5 c4 -6 -5 -10 -20 -10 -15 0 -24 4
-20 10 3 6 12 10 20 10 8 0 17 -4 20 -10z m382 -46 c33 -9 38 -49 11 -92 -12
-20 -25 -39 -28 -42 -3 -3 -23 -32 -45 -65 -22 -33 -43 -64 -47 -70 -5 -5 -17
-22 -29 -37 -11 -16 -25 -28 -30 -28 -18 0 -8 43 15 65 17 16 30 51 50 134 15
62 30 119 33 127 5 15 33 18 70 8z m-327 -22 c0 -10 -7 -27 -15 -38 -13 -18
-14 -17 -15 19 0 26 4 37 15 37 8 0 15 -8 15 -18z m120 -17 c41 -21 60 -53 60
-102 0 -128 -121 -214 -172 -122 -25 42 -23 49 12 43 23 -5 30 -3 30 9 0 8
-13 17 -30 21 -27 5 -30 10 -30 41 0 39 24 93 49 112 22 17 46 16 81 -2z
m-1141 -56 c34 -12 40 -33 16 -59 -8 -9 -30 -72 -48 -140 -19 -68 -39 -126
-45 -128 -6 -2 -20 2 -32 8 -17 9 -20 17 -15 43 5 27 2 34 -17 42 -22 9 -23
15 -21 98 1 83 3 91 29 118 31 32 75 38 133 18z m1781 -34 c6 -3 10 -23 10
-43 l1 -37 24 29 c13 17 21 34 18 39 -6 10 67 0 103 -14 21 -7 21 -10 9 -81
-8 -40 -18 -86 -24 -102 -7 -16 -9 -31 -6 -34 3 -3 38 27 77 67 82 84 155 144
209 171 44 23 91 14 140 -28 18 -15 55 -38 83 -52 28 -14 52 -31 54 -39 3 -8
0 -11 -7 -7 -22 14 -38 -19 -38 -82 -1 -72 -38 -160 -93 -222 -22 -25 -28 -28
-20 -11 20 40 16 105 -9 139 -21 30 -36 39 -83 47 -22 4 -22 4 -4 -10 17 -13
18 -15 3 -15 -9 0 -16 -3 -15 -7 3 -18 -42 -98 -76 -134 -30 -31 -35 -42 -27
-57 10 -19 56 -45 96 -55 19 -5 19 -5 -2 -12 -18 -6 -21 -12 -16 -43 3 -28 2
-33 -6 -22 -9 13 -11 12 -11 -3 0 -10 -7 -25 -15 -34 -8 -8 -13 -19 -10 -24 4
-5 2 -9 -3 -9 -5 0 -15 -13 -22 -30 -15 -35 -19 -36 -68 -11 -20 11 -58 27
-85 36 -60 21 -152 104 -167 152 -7 19 -10 51 -7 70 6 35 6 35 -14 17 -24 -22
-92 -145 -109 -196 -10 -32 -16 -38 -40 -38 -16 0 -35 3 -44 6 -18 7 -21 46
-5 76 9 16 8 23 -2 29 -8 5 -9 9 -4 9 6 0 2 5 -7 11 -15 8 -16 14 -5 37 14 33
25 41 57 43 23 0 23 1 5 9 -14 6 -15 9 -5 10 11 0 9 4 -5 12 -11 6 -21 12 -23
13 -1 1 3 16 9 33 11 31 13 32 67 32 32 0 74 -5 95 -11 32 -9 37 -13 31 -31
-8 -25 11 -16 26 13 9 16 6 21 -16 31 -23 11 -25 16 -20 46 3 19 3 32 -1 29
-3 -3 -12 0 -20 8 -8 8 -23 15 -33 15 -11 0 -20 9 -23 23 -3 22 -3 22 -14 -3
-6 -14 -16 -37 -22 -52 -11 -30 -32 -35 -75 -18 -43 16 -34 68 45 254 l33 78
48 -5 c27 -4 53 -9 58 -12z m-1691 -32 c5 -21 11 -45 12 -53 4 -23 -11 -91
-27 -123 -13 -23 -21 -28 -47 -25 -44 4 -45 25 -7 142 34 105 53 121 69 59z
m1346 7 c3 -5 1 -10 -4 -10 -6 0 -11 5 -11 10 0 6 2 10 4 10 3 0 8 -4 11 -10z
m-1286 -188 c14 -51 10 -61 -24 -54 -28 5 -30 18 -14 76 12 44 20 39 38 -22z
m954 -17 c23 -32 15 -32 -17 0 -14 14 -20 25 -13 25 7 0 20 -12 30 -25z m251
-122 c-15 -64 -40 -127 -51 -131 -7 -2 -15 8 -19 22 -4 18 3 40 27 80 37 61
53 72 43 29z m-1453 -33 c24 -43 49 -107 55 -136 13 -68 -33 -134 -94 -134
-50 0 -75 92 -52 189 20 83 67 125 91 81z m179 -36 c17 -15 37 -39 45 -54 13
-25 13 -31 -4 -51 -20 -25 -41 -19 -41 13 0 26 -35 84 -55 92 -27 10 -16 -20
41 -110 80 -127 90 -149 74 -169 -16 -19 -38 -19 -86 1 -20 9 -49 17 -63 18
-18 2 -26 9 -26 22 0 26 30 29 76 8 22 -9 41 -15 44 -12 3 2 -20 41 -51 85
-57 85 -76 142 -54 168 19 23 65 18 100 -11z m150 -37 c0 -2 -7 -18 -16 -36
-14 -29 -14 -39 0 -107 22 -111 59 -159 73 -94 7 37 19 39 26 3 11 -57 -50
-84 -90 -40 -65 69 -70 277 -7 277 8 0 14 -2 14 -3z m-1233 -204 c-3 -10 -5
-4 -5 12 0 17 2 24 5 18 2 -7 2 -21 0 -30z m1048 -199 c422 -140 391 -127 404
-177 5 -24 22 -56 36 -73 28 -31 119 -203 112 -211 -7 -6 -119 22 -207 51
-129 43 -333 115 -380 135 -25 10 -72 26 -105 36 -71 21 -168 53 -210 70 -16
7 -45 18 -62 24 -27 11 -33 19 -33 41 0 16 5 32 10 35 6 4 8 10 5 15 -5 8 16
82 44 152 10 27 10 27 53 13 24 -8 174 -58 333 -111z m1564 -3 c-12 -4 -39 31
-32 42 2 4 13 -3 23 -15 10 -13 14 -25 9 -27z m1548 -91 c-1 -11 -5 -20 -9
-20 -3 0 -6 9 -5 20 1 11 5 20 9 20 3 0 6 -9 5 -20z m-1377 -64 c0 -3 -4 -8
-10 -11 -5 -3 -10 -1 -10 4 0 6 5 11 10 11 6 0 10 -2 10 -4z m1285 -106 c3 -5
1 -10 -4 -10 -6 0 -11 5 -11 10 0 6 2 10 4 10 3 0 8 -4 11 -10z m-4158 -187
c-3 -3 -11 -2 -17 2 -9 6 -9 10 1 16 14 8 27 -7 16 -18z m2273 -107 c0 -3 -4
-8 -10 -11 -5 -3 -10 -1 -10 4 0 6 5 11 10 11 6 0 10 -2 10 -4z m-1915 -426
c8 -13 -5 -13 -25 0 -13 8 -13 10 2 10 9 0 20 -4 23 -10z m1505 -160 c13 -8
13 -10 -2 -10 -9 0 -20 5 -23 10 -8 13 5 13 25 0z m-1760 -67 c-1 -30 -23 -50
-57 -51 -44 -1 -41 10 7 31 22 9 40 19 40 23 0 3 -5 2 -12 -2 -7 -4 -8 -3 -4
4 11 18 26 14 26 -5z m1885 -53 c21 -41 19 -106 -6 -146 -11 -19 -25 -34 -30
-34 -13 0 -12 5 16 46 29 42 31 70 10 121 -16 39 -17 43 -10 43 2 0 11 -13 20
-30z m-127 -71 c4 -19 -19 -31 -38 -19 -18 11 -4 42 17 38 10 -2 19 -10 21
-19z m62 -79 c-6 -11 -12 -20 -14 -20 -3 0 -1 23 3 38 1 1 6 2 11 2 7 0 7 -6
0 -20z m257 -732 c-2 -13 -4 -5 -4 17 -1 22 1 32 4 23 2 -10 2 -28 0 -40z
m-10 -75 c-3 -10 -5 -4 -5 12 0 17 2 24 5 18 2 -7 2 -21 0 -30z m-10 -65 c-3
-8 -6 -5 -6 6 -1 11 2 17 5 13 3 -3 4 -12 1 -19z m-16 -123 l-10 -40 4 45 c6
72 7 76 12 55 2 -11 -1 -38 -6 -60z m-31 -240 c-7 -41 -15 -73 -17 -71 -3 2 1
38 8 80 7 41 15 73 17 71 3 -3 -1 -39 -8 -80z m-23 -162 c-3 -10 -5 -4 -5 12
0 17 2 24 5 18 2 -7 2 -21 0 -30z m-20 -135 c-3 -7 -5 -2 -5 12 0 14 2 19 5
13 2 -7 2 -19 0 -25z"/>
<path d="M4655 8570 c-19 -7 -18 -8 5 -14 39 -9 140 -12 140 -4 0 24 -100 37
-145 18z"/>
<path d="M3580 7560 c-12 -8 -10 -10 8 -10 13 0 20 4 17 10 -7 12 -6 12 -25 0z"/>
<path d="M5357 7544 c-14 -14 -7 -22 23 -26 17 -3 30 -1 30 4 0 4 -9 8 -19 8
-11 0 -21 5 -23 11 -2 5 -7 7 -11 3z"/>
<path d="M5598 7493 c7 -3 16 -2 19 1 4 3 -2 6 -13 5 -11 0 -14 -3 -6 -6z"/>
<path d="M5578 7473 c7 -3 16 -2 19 1 4 3 -2 6 -13 5 -11 0 -14 -3 -6 -6z"/>
<path d="M2866 5165 c-3 -8 -1 -15 4 -15 6 0 10 7 10 15 0 8 -2 15 -4 15 -2 0
-6 -7 -10 -15z"/>
<path d="M1810 5080 c0 -5 5 -10 10 -10 6 0 10 5 10 10 0 6 -4 10 -10 10 -5 0
-10 -4 -10 -10z"/>
<path d="M1786 5043 c-14 -4 -16 -7 -6 -13 15 -9 40 -2 40 11 0 9 -3 10 -34 2z"/>
<path d="M2805 5030 c3 -5 8 -10 11 -10 2 0 4 5 4 10 0 6 -5 10 -11 10 -5 0
-7 -4 -4 -10z"/>
<path d="M2848 4813 c7 -3 16 -2 19 1 4 3 -2 6 -13 5 -11 0 -14 -3 -6 -6z"/>
<path d="M2480 4555 c-8 -9 -8 -15 -2 -15 12 0 26 19 19 26 -2 2 -10 -2 -17
-11z"/>
<path d="M3645 5171 c-3 -6 -17 -8 -32 -5 -18 5 -24 3 -19 -5 4 -6 15 -11 24
-11 22 0 48 17 40 25 -3 4 -9 2 -13 -4z"/>
<path d="M3518 4363 c6 -2 18 -2 25 0 6 3 1 5 -13 5 -14 0 -19 -2 -12 -5z"/>
<path d="M3468 4333 c12 -2 30 -2 40 0 9 3 -1 5 -23 4 -22 0 -30 -2 -17 -4z"/>
<path d="M3498 4313 c7 -3 16 -2 19 1 4 3 -2 6 -13 5 -11 0 -14 -3 -6 -6z"/>
<path d="M3436 4261 c-4 -5 3 -7 14 -4 23 6 26 13 6 13 -8 0 -17 -4 -20 -9z"/>
<path d="M2780 4425 c7 -9 15 -13 17 -11 7 7 -7 26 -19 26 -6 0 -6 -6 2 -15z"/>
<path d="M2695 4420 c-5 -8 7 -12 31 -9 3 0 11 -7 18 -17 10 -13 19 -15 42 -9
l29 9 -27 4 c-16 2 -28 10 -28 18 0 16 -55 20 -65 4z"/>
<path d="M4016 3422 c-3 -6 -1 -14 5 -17 14 -9 20 -2 10 14 -6 8 -11 9 -15 3z"/>
<path d="M3990 3293 c1 -9 47 -63 55 -63 15 0 0 28 -26 48 -16 13 -29 20 -29
15z"/>
<path d="M4025 3176 c11 -8 25 -11 33 -8 11 4 11 6 0 13 -7 5 -22 9 -32 9 -19
0 -19 0 -1 -14z"/>
<path d="M4050 3145 c0 -8 5 -15 11 -15 5 0 7 -5 3 -12 -4 -6 -3 -8 4 -5 12 8
4 47 -9 47 -5 0 -9 -7 -9 -15z"/>
<path d="M4101 3144 c0 -11 3 -14 6 -6 3 7 2 16 -1 19 -3 4 -6 -2 -5 -13z"/>
<path d="M4110 3120 c-9 -6 -10 -10 -3 -10 6 0 19 -3 27 -6 12 -5 15 -2 10 10
-7 18 -13 20 -34 6z"/>
<path d="M3676 2825 c-3 -8 -1 -15 4 -15 6 0 10 7 10 15 0 8 -2 15 -4 15 -2 0
-6 -7 -10 -15z"/>
<path d="M3717 2819 c-17 -10 -15 -29 4 -29 6 0 8 4 5 9 -4 5 0 11 6 14 7 2
11 7 8 10 -3 3 -13 1 -23 -4z"/>
<path d="M4685 2590 c3 -5 8 -10 11 -10 2 0 4 5 4 10 0 6 -5 10 -11 10 -5 0
-7 -4 -4 -10z"/>
<path d="M4297 2529 c4 -13 8 -18 11 -10 2 7 -1 18 -6 23 -8 8 -9 4 -5 -13z"/>
<path d="M3831 2464 c0 -11 3 -14 6 -6 3 7 2 16 -1 19 -3 4 -6 -2 -5 -13z"/>
<path d="M3901 2374 c0 -11 3 -14 6 -6 3 7 2 16 -1 19 -3 4 -6 -2 -5 -13z"/>
<path d="M3870 2319 c0 -5 5 -7 10 -4 6 3 10 8 10 11 0 2 -4 4 -10 4 -5 0 -10
-5 -10 -11z"/>
<path d="M3785 2310 c3 -5 8 -10 11 -10 2 0 4 5 4 10 0 6 -5 10 -11 10 -5 0
-7 -4 -4 -10z"/>
<path d="M3875 2290 c-3 -5 -1 -10 4 -10 6 0 11 5 11 10 0 6 -2 10 -4 10 -3 0
-8 -4 -11 -10z"/>
<path d="M3770 2278 c0 -16 23 -19 38 -4 15 15 14 16 -11 14 -15 -1 -27 -6
-27 -10z"/>
<path d="M3960 2189 c0 -5 5 -7 10 -4 6 3 10 8 10 11 0 2 -4 4 -10 4 -5 0 -10
-5 -10 -11z"/>
<path d="M4317 2169 c7 -7 15 -10 18 -7 3 3 -2 9 -12 12 -14 6 -15 5 -6 -5z"/>
<path d="M4120 2010 c0 -5 5 -10 10 -10 6 0 10 5 10 10 0 6 -4 10 -10 10 -5 0
-10 -4 -10 -10z"/>
<path d="M4160 1940 c0 -5 5 -10 10 -10 6 0 10 5 10 10 0 6 -4 10 -10 10 -5 0
-10 -4 -10 -10z"/>
<path d="M4307 4189 c7 -7 15 -10 18 -7 3 3 -2 9 -12 12 -14 6 -15 5 -6 -5z"/>
<path d="M4280 4150 c20 -13 33 -13 25 0 -3 6 -14 10 -23 10 -15 0 -15 -2 -2
-10z"/>
<path d="M4148 4143 c7 -3 16 -2 19 1 4 3 -2 6 -13 5 -11 0 -14 -3 -6 -6z"/>
<path d="M4204 4135 c11 -8 24 -15 30 -15 5 0 1 7 -10 15 -10 8 -23 14 -29 14
-5 0 -1 -6 9 -14z"/>
<path d="M4245 4140 c3 -5 14 -10 23 -10 15 0 15 2 2 10 -20 13 -33 13 -25 0z"/>
<path d="M4110 4136 c0 -2 7 -7 16 -10 8 -3 12 -2 9 4 -6 10 -25 14 -25 6z"/>
<path d="M4191 4014 c0 -11 3 -14 6 -6 3 7 2 16 -1 19 -3 4 -6 -2 -5 -13z"/>
<path d="M4164 4012 c3 -6 -2 -12 -11 -14 -15 -3 -14 -5 5 -10 24 -7 32 15 10
28 -6 4 -8 3 -4 -4z"/>
<path d="M2517 4196 c-4 -10 -5 -21 -2 -24 9 -9 17 6 13 25 -3 17 -4 17 -11
-1z"/>
<path d="M3670 3916 c0 -9 7 -16 16 -16 17 0 14 22 -4 28 -7 2 -12 -3 -12 -12z"/>
<path d="M2496 3871 c-4 -5 -8 -31 -11 -58 l-5 -48 20 40 c11 22 20 48 20 58
0 18 -15 23 -24 8z"/>
<path d="M2446 3510 c-31 -91 -29 -160 6 -206 16 -20 23 -23 29 -12 14 21 10
85 -6 125 -9 20 -13 44 -10 54 8 24 -11 62 -19 39z"/>
<path d="M2890 2914 c0 -8 5 -12 10 -9 6 4 8 11 5 16 -9 14 -15 11 -15 -7z"/>
<path d="M1742 3190 c0 -14 2 -19 5 -12 2 6 2 18 0 25 -3 6 -5 1 -5 -13z"/>
<path d="M1660 3170 c0 -5 5 -10 10 -10 6 0 10 5 10 10 0 6 -4 10 -10 10 -5 0
-10 -4 -10 -10z"/>
<path d="M1661 3134 c0 -11 3 -14 6 -6 3 7 2 16 -1 19 -3 4 -6 -2 -5 -13z"/>
<path d="M1600 3086 c0 -2 7 -9 15 -16 9 -7 15 -8 15 -2 0 5 -7 12 -15 16 -8
3 -15 4 -15 2z"/>
<path d="M1567 3050 c3 -11 12 -20 19 -20 19 0 18 26 -2 34 -22 9 -23 8 -17
-14z"/>
<path d="M1656 3043 c-6 -14 -5 -15 5 -6 7 7 10 15 7 18 -3 3 -9 -2 -12 -12z"/>
<path d="M1575 2990 c3 -5 8 -10 11 -10 2 0 4 5 4 10 0 6 -5 10 -11 10 -5 0
-7 -4 -4 -10z"/>
<path d="M1407 2479 c7 -7 15 -10 18 -7 3 3 -2 9 -12 12 -14 6 -15 5 -6 -5z"/>
<path d="M1073 1815 c-9 -24 1 -27 15 -5 8 13 8 20 2 20 -6 0 -13 -7 -17 -15z"/>
<path d="M1076 1765 c4 -8 11 -15 16 -15 6 0 5 6 -2 15 -7 8 -14 15 -16 15 -2
0 -1 -7 2 -15z"/>
<path d="M1030 1589 c0 -5 5 -7 10 -4 6 3 10 8 10 11 0 2 -4 4 -10 4 -5 0 -10
-5 -10 -11z"/>
<path d="M1008 1493 c6 -2 10 -8 7 -13 -3 -4 2 -13 10 -20 12 -10 15 -10 15 2
0 17 -20 38 -34 37 -6 0 -5 -3 2 -6z"/>
<path d="M1005 1420 c-3 -5 -1 -10 4 -10 6 0 11 5 11 10 0 6 -2 10 -4 10 -3 0
-8 -4 -11 -10z"/>
<path d="M3006 1374 c-9 -24 -7 -36 4 -29 6 4 8 10 5 15 -3 4 0 10 7 12 8 3 9
6 1 11 -6 4 -14 0 -17 -9z"/>
<path d="M3128 1363 c7 -3 16 -2 19 1 4 3 -2 6 -13 5 -11 0 -14 -3 -6 -6z"/>
<path d="M3233 1343 c3 -2 21 -8 40 -13 25 -5 34 -4 31 4 -2 6 -20 12 -40 13
-20 1 -34 -1 -31 -4z"/>
<path d="M3130 1320 c0 -5 7 -10 15 -10 8 0 15 5 15 10 0 6 -7 10 -15 10 -8 0
-15 -4 -15 -10z"/>
<path d="M3355 1320 c3 -5 14 -10 23 -10 24 0 187 -39 247 -59 29 -10 49 -23
47 -30 -1 -7 2 -10 8 -6 6 4 10 -4 10 -19 0 -14 -5 -28 -12 -32 -6 -4 -8 -3
-4 4 3 6 -2 13 -11 15 -27 7 -98 9 -92 2 5 -4 112 -35 123 -35 1 0 4 24 5 53
l2 54 -73 13 c-40 7 -91 17 -113 22 -22 6 -47 12 -56 13 -9 2 -34 8 -55 14
-48 14 -57 14 -49 1z"/>
<path d="M3270 1301 c0 -6 -8 -11 -17 -12 -27 -1 118 -39 150 -39 34 0 32 20
-4 37 -36 17 -129 27 -129 14z"/>
<path d="M3148 1273 c7 -3 16 -2 19 1 4 3 -2 6 -13 5 -11 0 -14 -3 -6 -6z"/>
<path d="M3535 1240 c-3 -5 3 -10 15 -10 12 0 18 5 15 10 -3 6 -10 10 -15 10
-5 0 -12 -4 -15 -10z"/>
</g>
</svg>
